<svg width="136" height="190" xmlns="http://www.w3.org/2000/svg" version="1.1">
	<g>
		<title>Layer 1</title>
		<g id="svg_1">
			<path d="m48.39364,5.40714c15.92381,3.83603 23.88572,3.83603 39.80953,0c1.9757,-0.47595 6.19098,-0.47595 12.64584,0c2.84481,0 5.15099,2.17893 5.15099,4.86678c0,0.76433 -0.19054,1.51791 -0.55617,2.19971l-17.41117,32.46769c28.83759,21.49433 43.15938,49.1562 42.96539,82.98561c-0.09169,15.98908 -6.99978,57.07307 -62.99807,57.07307c-55.99828,0 -63.13574,-33.49964 -62.99806,-57.07306c0.19396,-33.21078 14.4723,-60.81041 42.83501,-82.79888l-17.292,-32.67764c-1.27224,-2.40409 -0.24089,-5.32744 2.30359,-6.52948c0.71524,-0.33789 1.50393,-0.5138 2.30359,-0.5138c6.57427,-0.54285 10.98811,-0.54285 13.24153,0z" fill="#8D6E63" id="Combined-Shape" stroke="#795548" stroke-width="10"/>
			<rect fill="#FFEB3B" height="27" id="tie" rx="5" width="10" x="53.99999" y="41.39394"/>
			<rect fill="#FFEB3B" height="10" id="tie" rx="5" width="63" x="36.70016" y="38.39394"/>
		</g>
	</g>
</svg>