<svg width="49.652000427246094" height="49.65399932861328" xmlns="http://www.w3.org/2000/svg" version="1.1" xml:space="preserve">
	<metadata>https://www.iconfinder.com/bogdanrosu</metadata>
	<path fill="{FILL}" d="m24.826,0c-13.689,0 -24.826,11.137 -24.826,24.826c0,13.69 11.137,24.828 24.826,24.828c13.689,0 24.826,-11.138 24.826,-24.828c0.001,-13.689 -11.136,-24.826 -24.826,-24.826zm13.717,23.011l0,0.001l-7.187,5.2l2.768,8.46c0.044,0.132 0.067,0.273 0.067,0.417c0,0.739 -0.598,1.339 -1.337,1.339c-0.294,0 -0.564,-0.094 -0.784,-0.253l-7.243,-5.239l-7.243,5.239c-0.22,0.159 -0.49,0.253 -0.783,0.253c-0.74,0 -1.339,-0.599 -1.339,-1.339c0,-0.145 0.024,-0.285 0.068,-0.417l2.769,-8.46l-7.187,-5.2l0,-0.001c-0.336,-0.242 -0.554,-0.637 -0.554,-1.083c0,-0.739 0.598,-1.337 1.338,-1.337l8.897,0l2.755,-8.421c0.168,-0.547 0.677,-0.945 1.28,-0.945c0.602,0 1.112,0.398 1.279,0.945l2.755,8.421l8.897,0c0.739,0 1.338,0.598 1.338,1.337c-0.001,0.446 -0.219,0.841 -0.554,1.083z" />
</svg>