<svg width="444.03948736190796" height="512.0001149902819" xmlns="http://www.w3.org/2000/svg" version="1.1" xml:space="preserve">
	<path fill="{FILL}" d="m152.54065,265.189l0,27.578c0,4.969 4.219,9.016 9.438,9.016l23.016,0c5.203,0 9.422,-4.047 9.422,-9.016l0,-23.094l7.859,0l0,23.094c0,4.969 4.219,9.016 9.422,9.016l23.031,0c5.203,0 9.438,-4.047 9.438,-9.016l0,-23.094l7.844,0l0,23.094c0,4.969 4.219,9.016 9.438,9.016l23.016,0c5.203,0 9.422,-4.047 9.422,-9.016l0,-27.578c23.984,-6.969 64.031,-23.141 77.656,-55.828c9.891,-23.766 6.016,-55.047 -8.797,-115.344c-14.846,-60.328 -57.971,-94.016 -139.549,-94.016s-124.688,33.688 -139.516,94.016c-14.828,60.297 -18.719,91.578 -8.797,115.344c13.61,32.687 53.657,48.844 77.657,55.828zm127.593,-156.359c21.688,-3.547 42.844,13.547 47.25,38.156c4.391,24.625 -9.625,47.453 -31.297,51.016c-21.719,3.531 -42.891,-13.531 -47.281,-38.172c-4.39,-24.61 9.641,-47.438 31.328,-51zm-26.39,112.484l-30.547,0l-30.516,0l30.516,-36.5l30.547,36.5zm-134.719,-74.328c4.438,-24.609 25.563,-41.703 47.25,-38.156c21.703,3.563 35.75,26.391 31.328,51c-4.391,24.641 -25.531,41.703 -47.234,38.172c-21.719,-3.563 -35.735,-26.391 -31.344,-51.016z" />
	<path fill="{FILL}" d="m416.22765,397.83c-16.391,-7.25 -35.656,-1.156 -44.484,13.516c-6.484,8.063 -16.563,4.906 -21.188,2.875c-3.438,-1.516 -39.281,-17.36 -81.844,-36.157c36.578,-16.75 66.781,-30.578 72.828,-33.344c16.703,-7.641 28.703,-11.813 39.719,-2.781c9.609,12.813 27.703,17.609 43.078,10.578c17.266,-7.891 24.563,-27.688 16.297,-44.203c-4.984,-10 -14.547,-16.469 -25.125,-18.297c5.156,-9.031 5.891,-20.188 0.875,-30.203c-8.25,-16.516 -28.938,-23.484 -46.203,-15.594c-14.953,6.844 -22.406,22.594 -18.781,37.422c0.859,11.156 -15.75,20.094 -26.766,25.141c-7.688,3.516 -55.188,25.672 -105.969,49.172c-47.75,-21.094 -91.875,-40.578 -99.359,-43.875c-16.828,-7.438 -27.844,-13.609 -27.609,-27.469c4.188,-15.25 -3.484,-31.641 -18.969,-38.5c-17.359,-7.656 -37.953,-0.406 -45.984,16.219c-4.859,10.063 -3.969,21.219 1.328,30.203c-10.563,1.953 -20.031,8.531 -24.875,18.594c-8.016,16.641 -0.438,36.328 16.938,44c15.047,6.641 32.484,2.078 42.094,-10.047c8.453,-7.766 26.234,-1.234 37.297,3.688c5.781,2.547 34.063,14.813 69.359,30.172c-42.5,19.531 -78.5,35.86 -84.156,37.657c-3.359,1.078 -6.375,1.203 -9.031,0.813c-0.203,-0.453 -0.375,-0.938 -0.609,-1.375c-8.234,-16.516 -28.938,-23.5 -46.203,-15.594c-17.266,7.891 -24.563,27.704 -16.297,44.219c5,9.969 14.547,16.453 25.125,18.281c-5.141,9.031 -5.875,20.203 -0.891,30.203c8.281,16.516 28.953,23.5 46.219,15.609c16.313,-7.484 23.703,-25.531 17.531,-41.406c-2.344,-9.906 6.609,-15.344 11.203,-17.453c4.109,-1.859 54.563,-24.969 107.266,-49.094c57.578,25.172 115.453,50.719 121.984,54.61c3,1.781 5.031,3.922 6.406,6.125c-0.25,0.438 -0.5,0.859 -0.719,1.313c-8.016,16.625 -0.453,36.297 16.938,44c17.375,7.656 37.953,0.406 45.984,-16.219c4.844,-10.047 3.953,-21.219 -1.328,-30.188c10.563,-1.969 20.016,-8.563 24.875,-18.594c8.015,-16.642 0.437,-36.346 -16.954,-44.017z" />
</svg>