<svg width="31" height="31" xmlns="http://www.w3.org/2000/svg" xml:space="preserve" version="1.1">
	<path fill="{FILL}" d="m7.20001,14.40002c3.28998,0 6.07001,-2.23004 6.91998,-5.26001l7.31,0l0,2.89996c0,1.07001 0.87,1.94 1.94,1.94c1.06,0 1.92999,-0.87 1.92999,-1.94l0,-2.89996l1.82002,0l0,2.89996c0,1.07001 0.87,1.94 1.94,1.94s1.94,-0.87 1.94,-1.94l0,-4.83996c0,-1.07001 -0.87,-1.94 -1.94,-1.94l-14.94,0c-0.84998,-3.03003 -3.63,-5.26001 -6.91998,-5.26001c-3.97004,0 -7.20002,3.22998 -7.20002,7.20001c0,3.96997 3.22998,7.20001 7.20001,7.20001zm0,-10.52002c1.83002,0 3.32001,1.48999 3.32001,3.32001c0,1.82996 -1.48999,3.32001 -3.32001,3.32001s-3.32001,-1.49005 -3.32001,-3.32001c0,-1.83002 1.49,-3.32001 3.32001,-3.32001z"/>
</svg>