<svg width="512" height="512" xmlns="http://www.w3.org/2000/svg" xml:space="preserve" version="1.1">
 <g>
  <path id="svg_1" fill="{FILL}" d="m384,384c0,0 0,-26.4 -2.2,-40.2c-1.8,-10.9 -16.9,-25.3 -81.1,-48.9c-63.2,-23.2 -59.3,-11.9 -59.3,-54.6c0,-27.7 14.1,-11.6 23.1,-64.2c3.5,-20.7 6.3,-6.9 13.9,-40.1c4,-17.4 -2.7,-18.7 -1.9,-27c0.8,-8.3 1.6,-15.7 3.1,-32.7c1.8,-21 -17.7,-76.3 -87.6,-76.3c-69.9,0 -89.4,55.3 -87.5,76.4c1.5,16.9 2.3,24.4 3.1,32.7c0.8,8.3 -5.9,9.6 -1.9,27c7.6,33.1 10.4,19.3 13.9,40.1c9,52.6 23.1,36.5 23.1,64.2c0,42.8 3.9,31.5 -59.3,54.6c-64.2,23.5 -79.4,38 -81.1,48.9c-2.3,13.7 -2.3,40.1 -2.3,40.1l192,0l192,0z"/>
 </g>
</svg>