<svg width="512.0009918212891" height="397.7430114746094" xmlns="http://www.w3.org/2000/svg" version="1.1" xml:space="preserve">
	<metadata>https://www.svgrepo.com/</metadata>
	<path d="m83.327,223.996c3.119,-6.049 4.905,-12.896 4.905,-20.167l0,-45.448c0,-12.186 -4.938,-23.216 -12.928,-31.206c-7.978,-7.978 -19.021,-12.916 -31.194,-12.916c-24.36,-0.002 -44.11,19.749 -44.11,44.12l0,45.448c0,24.36 19.75,44.11 44.11,44.11c6.433,0 87.049,0 152.031,0c-9.56,-4.296 -69.133,-13.378 -112.814,-23.941z" fill="#E09B2D" id="svg_1"/>
	<polygon points="291.937,243.072 291.937,368.336 232.488,325.244 260.001,243.072 " fill="#E54728" id="svg_2"/>
	<polygon points="260.001,243.072 260.001,397.743 228.077,374.088 196.141,397.743 196.141,243.072 " fill="#F95428" id="svg_3"/>
	<rect x="196.141" y="243.072" width="63.86" height="52.173" fill="#E54728" id="svg_4"/>
	<path d="m467.878,114.257l-235.642,0l-49.206,0l-138.92,0c12.174,0 23.216,4.938 31.194,12.916c7.99,7.99 12.928,19.021 12.928,31.206l0,45.448c0,17.926 -10.702,33.359 -26.062,40.267c5.509,2.469 11.614,3.843 18.036,3.843l102.826,0l13.11,0l36.095,0l235.642,0c24.372,0 44.122,-19.75 44.122,-44.11l0,-45.448c-0.001,-24.371 -19.751,-44.122 -44.123,-44.122z" fill="#F7B239" id="svg_5"/>
	<path d="m334.543,158.379l0,45.448c0,24.36 -19.75,44.11 -44.122,44.11l-4.159,0l-31.936,0l-27.765,0c24.36,0 44.11,-19.75 44.11,-44.11l0,-45.448c0,-24.372 -19.75,-44.122 -44.11,-44.122l63.86,0c24.371,0 44.122,19.751 44.122,44.122z" fill="#E09B2D" id="svg_6"/>
	<path d="m340.219,158.379l0,45.448c0,24.36 -19.75,44.11 -44.122,44.11l-4.159,0l-31.936,0l-27.765,0c24.36,0 44.11,-19.75 44.11,-44.11l0,-45.448c0,-24.372 -19.75,-44.122 -44.11,-44.122l63.86,0c24.371,0 44.122,19.751 44.122,44.122z" fill="#F95428" id="svg_7"/>
	<path d="m36.095,203.827l52.136,0c0,17.926 -10.702,33.359 -26.062,40.267c-15.371,-6.908 -26.074,-22.341 -26.074,-40.267z" fill="#B27214" id="svg_8"/>
</svg>