<svg width="1280" height="1215" xmlns="http://www.w3.org/2000/svg" fill="Transparent" version="1.0" preserveAspectRatio="xMidYMid meet">
	<metadata>Created by potrace 1.15, written by Peter Selinger 2001-2017</metadata>
		<g transform="translate(0 1215) scale(0.1 -0.1)" id="svg_1">
			<path fill="{FILL}" stroke="{STROKE}" stroke-width="500" d="m5805.00002,12148.34289c-969,-58 -1693,-267 -2570,-741c-217,-118 -601,-380 -855,-584c-521,-418 -1034,-973 -1391,-1506c-249,-370 -461,-715 -553,-900c-100,-200 -106,-224 -107,-413c0,-183 12,-250 76,-450c88,-274 105,-398 105,-780c0,-410 -19,-658 -81,-1080c-57,-382 -92,-520 -249,-965c-117,-332 -140,-426 -170,-695l-10,-95l80,-235c103,-299 196,-547 272,-725c337,-790 704,-1261 1033,-1326c28,-6 261,-14 520,-19c503,-9 638,-19 781,-55c149,-38 302,-130 363,-219c69,-100 86,-272 107,-1094l7,-263l406,3c439,3 450,5 470,57c5,14 15,59 21,99c8,50 19,82 35,100c23,27 23,27 45,7c29,-26 48,-73 60,-153c6,-37 13,-77 16,-89l4,-23l420,0l420,0l0,53c0,120 34,231 74,247c51,19 88,-45 107,-185c6,-50 13,-96 15,-102c3,-10 113,-13 508,-13l504,0l12,67c15,87 39,156 77,216l30,49l32,-52c38,-62 61,-145 61,-222l0,-58l532,2l532,3l12,97c19,148 58,218 110,198c40,-16 74,-127 74,-247l0,-53l420,0l420,0l4,23c3,12 10,52 16,89c12,80 31,127 60,153c22,20 22,20 45,-7c16,-18 27,-50 35,-100c6,-40 16,-85 21,-99c20,-52 31,-54 470,-57l406,-3l7,263c10,403 25,732 37,848c20,189 51,252 163,336c125,95 260,141 471,164c61,6 322,15 580,20c259,5 493,13 520,19c333,66 702,545 1043,1351c82,196 156,392 263,705l79,230l-10,95c-30,269 -53,363 -170,695c-158,448 -189,566 -244,938c-67,443 -86,687 -86,1107c0,380 17,506 103,775c66,206 78,272 78,454c-1,190 -7,214 -107,414c-92,184 -304,530 -551,897c-357,533 -873,1092 -1390,1507c-264,212 -641,468 -873,594c-778,421 -1467,635 -2300,715c-126,12 -310,17 -775,19c-335,1 -637,1 -670,-1zm-3083,-5104c186,-27 369,-132 818,-469c681,-512 1158,-941 1540,-1386c198,-231 334,-427 477,-686c92,-166 113,-219 113,-290c0,-63 -11,-84 -51,-98c-44,-15 -244,-14 -494,4c-509,35 -1210,42 -1470,14c-49,-5 -160,-24 -245,-41c-141,-29 -172,-32 -350,-32c-222,-1 -271,8 -405,73c-162,80 -276,220 -396,488c-231,514 -597,1419 -654,1617c-29,99 -4,201 69,290c67,82 270,209 641,402c250,129 267,134 407,114zm7718,-91c373,-190 617,-341 686,-425c73,-89 98,-191 69,-290c-57,-198 -423,-1103 -654,-1617c-120,-268 -234,-408 -396,-488c-134,-65 -183,-74 -405,-73c-177,0 -209,3 -350,32c-85,17 -193,36 -240,41c-243,28 -962,21 -1475,-14c-274,-19 -455,-20 -500,-1c-41,18 -50,44 -42,127c6,66 30,120 158,344c341,600 978,1241 1974,1990c515,386 702,482 925,470c59,-3 81,-11 250,-96zm-3916,-3517c153,-82 388,-395 743,-986c207,-345 261,-463 246,-538c-8,-40 -85,-105 -146,-123c-117,-35 -744,-28 -815,9c-34,18 -65,63 -82,121c-7,24 -15,168 -20,357c-6,192 -13,325 -20,338c-14,26 -46,26 -60,-1c-7,-13 -15,-141 -20,-337c-5,-190 -13,-333 -20,-357c-17,-58 -48,-103 -82,-121c-71,-37 -698,-44 -815,-9c-61,18 -138,83 -146,122c-15,77 47,212 263,568c405,671 620,936 802,990c51,15 101,5 172,-33z" id="svg_2"/>
		</g>
</svg>