<svg width="576.4421997070312" height="577.4492176249623" xmlns="http://www.w3.org/2000/svg" version="1.0">
    <path fill="{FILL}" stroke="{STROKE}" stroke-width="3.408" d="m64.571,0.06311c-41.335,0 -64.571,21.371 -64.571,65.036l0,450.1221c0,40.843 20.891,62.228 62.192,62.228l452.0242,0c41.303,0 62.226,-20.32 62.226,-62.228l0,-450.1221c0,-42.6 -20.923,-65.036 -63.523,-65.036c0,0 -448.4912,-0.142 -448.3482,0z" id="path2224"/>
    <path fill="{STROKE}" d="m56.845,419.58621l80.0502,0l0,-81.474l79.534,0l0,-82.026l80.789,0l0,-80.499l80.241,0l0,-79.974l119.138,0l0,40.804l-79.202,0l0,80.277l-80.332,0l0,81.409l-80.168,0l0,80.983l-80.5,0l0,81.672l-119.5502,0l0,-41.172z" />
    <path fill="{STROKE}" transform="rotate(-180 369.343 396.225)" d="m323.6022,459.17221l70.793,0c19.5,0 20.25,-30 0,-30l-36.287,0l69.012,-69.012c15.299,-15.298 -6.34,-37.437 -22.593,-21.185l-67.985,68.174l0,-35.916c0.103,-19.5 -30.147,-20.25 -30.193,0l0,70.353c0,10.5 7.046,17.586 17.253,17.586z" />
</svg>